<?xml version="1.0" encoding="UTF-8"?>
<svg id="Layer_2" data-name="Layer 2" xmlns="http://www.w3.org/2000/svg" viewBox="0 0 24.88 57.61">
  <defs>
    <style>
      .cls-1 {
        fill: #2c3825;
        stroke-width: 0px;
      }
    </style>
  </defs>
  <g id="Layer_1-2" data-name="Layer 1">
    <path class="cls-1" d="M18.85,47.15c-1.54,2.1-3.42,3.86-5.45,5.29-2.07,1.41-4.24,2.53-6.49,3.38-2.26.83-4.56,1.42-6.89,1.79v-.05c2.07-1.11,4.09-2.22,5.98-3.51,1.88-1.3,3.64-2.69,5.13-4.29,3.04-3.14,4.99-6.92,5.67-10.94.67-4.04.24-8.27-.81-12.42-.79-3.17-1.94-6.29-3.29-9.37l-5.33,2.9L7.86,0l17.02,10.4-5.42,2.95c1.52,3.7,2.73,7.55,3.46,11.59.84,4.93.98,10.22-.58,15.25-.76,2.5-1.95,4.89-3.49,6.96Z"/>
  </g>
</svg>